<svg width="18" height="22" viewBox="0 0 18 22" fill="none" xmlns="http://www.w3.org/2000/svg">
<path d="M7.83538 21.7164C6.54258 21.7164 5.36933 21.4729 4.31561 20.9859C3.26189 20.4901 2.42511 19.7772 1.80528 18.8475C1.18544 17.9089 0.875524 16.7755 0.875524 15.4473C0.875524 14.2784 1.10575 13.331 1.5662 12.6049C2.02665 11.8699 2.64205 11.2944 3.41242 10.8782C4.18278 10.462 5.03284 10.1521 5.9626 9.94843C6.9012 9.73592 7.84424 9.56768 8.7917 9.44371C10.0314 9.28433 11.0364 9.16479 11.8068 9.08509C12.586 8.99654 13.1527 8.85044 13.5069 8.64678C13.8699 8.44312 14.0514 8.08893 14.0514 7.58421V7.47795C14.0514 6.16744 13.6928 5.14914 12.9756 4.42305C12.2672 3.69696 11.1913 3.33391 9.74802 3.33391C8.25156 3.33391 7.0783 3.66154 6.22824 4.31679C5.37818 4.97205 4.78048 5.67157 4.43515 6.41538L1.45994 5.3528C1.99123 4.11313 2.69961 3.14796 3.58509 2.45729C4.47942 1.75776 5.45345 1.27075 6.50716 0.996249C7.56974 0.712897 8.6146 0.57122 9.64176 0.57122C10.297 0.57122 11.0497 0.650913 11.8997 0.810298C12.7586 0.960829 13.5866 1.27517 14.3835 1.75333C15.1893 2.23149 15.8578 2.95316 16.3891 3.91833C16.9204 4.8835 17.186 6.1763 17.186 7.79672V21.2383H14.0514V18.4756H13.8921C13.6795 18.9183 13.3253 19.3921 12.8295 19.8968C12.3336 20.4015 11.6739 20.831 10.8504 21.1852C10.0269 21.5393 9.02192 21.7164 7.83538 21.7164ZM8.31354 18.9006C9.55321 18.9006 10.5981 18.6571 11.4481 18.1701C12.307 17.6831 12.9534 17.0544 13.3873 16.284C13.8301 15.5137 14.0514 14.7035 14.0514 13.8534V10.9844C13.9186 11.1438 13.6264 11.2899 13.1748 11.4228C12.7321 11.5467 12.2185 11.6574 11.6341 11.7548C11.0585 11.8434 10.4962 11.9231 9.94725 11.9939C9.40711 12.0559 8.9688 12.109 8.63231 12.1533C7.81767 12.2595 7.05616 12.4322 6.34778 12.6713C5.64825 12.9015 5.08155 13.2513 4.64766 13.7206C4.22263 14.181 4.01012 14.8097 4.01012 15.6066C4.01012 16.6958 4.41301 17.5193 5.21879 18.0771C6.03343 18.6261 7.06502 18.9006 8.31354 18.9006Z" fill="black"/>
</svg>
