<svg width="800" height="800" viewBox="0 0 800 800" fill="none" xmlns="http://www.w3.org/2000/svg">
<path d="M333.333 200H466.666C466.666 236.819 436.819 266.667 400 266.667C363.181 266.667 333.333 236.819 333.333 200ZM666.666 648.459C577.064 682.82 487.543 700 398.105 700C308.666 700 220.409 682.82 133.333 648.459C151.152 505.042 239.409 433.333 398.105 433.333C556.8 433.333 646.32 505.042 666.666 648.459Z" fill="#2A262C"/>
<mask id="mask0_1106_249" style="mask-type:luminance" maskUnits="userSpaceOnUse" x="133" y="200" width="534" height="500">
<path d="M333.333 200H466.666C466.666 236.819 436.819 266.667 400 266.667C363.181 266.667 333.333 236.819 333.333 200ZM666.666 648.459C577.064 682.82 487.543 700 398.105 700C308.666 700 220.409 682.82 133.333 648.459C151.152 505.042 239.409 433.333 398.105 433.333C556.8 433.333 646.32 505.042 666.666 648.459Z" fill="#2A262C"/>
</mask>
<g mask="url(#mask0_1106_249)">
<path d="M800 0H0V800H800V0Z" fill="#2A262C"/>
</g>
<path d="M400 366.665C307.953 366.665 233.334 292.046 233.334 199.999C233.334 107.951 307.953 33.332 400 33.332C492.048 33.332 566.667 107.951 566.667 199.999C566.667 292.046 492.048 366.665 400 366.665ZM400 299.999C455.229 299.999 500 255.227 500 199.999C500 144.77 455.229 99.9987 400 99.9987C344.772 99.9987 300 144.77 300 199.999C300 255.227 344.772 299.999 400 299.999ZM166.659 700.743C166.247 719.148 150.994 733.735 132.589 733.324C114.184 732.913 99.5974 717.659 100.008 699.254C104.859 482.088 207.456 399.999 399.998 399.999C601.595 399.999 704.701 482.728 699.831 700.743C699.42 719.148 684.167 733.735 665.762 733.324C647.357 732.913 632.77 717.659 633.181 699.254C637.246 517.269 562.68 466.665 399.998 466.665C245.921 466.665 170.742 517.909 166.659 700.743Z" fill="#2A262C"/>
<mask id="mask1_1106_249" style="mask-type:luminance" maskUnits="userSpaceOnUse" x="100" y="33" width="600" height="701">
<path d="M400 366.665C307.953 366.665 233.334 292.046 233.334 199.999C233.334 107.951 307.953 33.332 400 33.332C492.048 33.332 566.667 107.951 566.667 199.999C566.667 292.046 492.048 366.665 400 366.665ZM400 299.999C455.229 299.999 500 255.227 500 199.999C500 144.77 455.229 99.9987 400 99.9987C344.772 99.9987 300 144.77 300 199.999C300 255.227 344.772 299.999 400 299.999ZM166.659 700.743C166.247 719.148 150.994 733.735 132.589 733.324C114.184 732.913 99.5974 717.659 100.008 699.254C104.859 482.088 207.456 399.999 399.998 399.999C601.595 399.999 704.701 482.728 699.831 700.743C699.42 719.148 684.167 733.735 665.762 733.324C647.357 732.913 632.77 717.659 633.181 699.254C637.246 517.269 562.68 466.665 399.998 466.665C245.921 466.665 170.742 517.909 166.659 700.743Z" fill="#2A262C"/>
</mask>
<g mask="url(#mask1_1106_249)">
<path d="M800 0H0V800H800V0Z" fill="#2A262C"/>
</g>
</svg>
