<svg width="34" height="34" viewBox="0 0 34 34" fill="none" xmlns="http://www.w3.org/2000/svg">
<path d="M31.6713 0.5H2.32875C1.84485 0.503598 1.38179 0.697424 1.0396 1.0396C0.697424 1.38179 0.503598 1.84485 0.5 2.32875V31.6713C0.503598 32.1552 0.697424 32.6182 1.0396 32.9604C1.38179 33.3026 1.84485 33.4964 2.32875 33.5H18.1275V20.74H13.8375V15.7488H18.1275V12.0775C18.1275 7.815 20.7262 5.49125 24.5487 5.49125C25.8275 5.49125 27.1063 5.49125 28.385 5.68375V10.125H25.7588C23.6825 10.125 23.2837 11.115 23.2837 12.5588V15.735H28.2338L27.5875 20.7262H23.2837V33.5H31.6713C32.1552 33.4964 32.6182 33.3026 32.9604 32.9604C33.3026 32.6182 33.4964 32.1552 33.5 31.6713V2.32875C33.4964 1.84485 33.3026 1.38179 32.9604 1.0396C32.6182 0.697424 32.1552 0.503598 31.6713 0.5Z" fill="white"/>
</svg>
